<?xml version="1.0" standalone="no"?>
<!DOCTYPE svg PUBLIC "-//W3C//DTD SVG 20010904//EN"
 "http://www.w3.org/TR/2001/REC-SVG-20010904/DTD/svg10.dtd">
<svg version="1.0" xmlns="http://www.w3.org/2000/svg"
 width="300.000000pt" height="180.000000pt" viewBox="0 0 300.000000 180.000000"
 preserveAspectRatio="xMidYMid meet">
<metadata>
Created by potrace 1.10, written by Peter Selinger 2001-2011
</metadata>
<g transform="translate(0.000000,180.000000) scale(0.100000,-0.100000)"
fill="#000000" stroke="none">
<path d="M0 1782 c0 -15 580 -22 1808 -22 1053 0 1192 2 1192 15 0 13 -173 15
-1500 15 -825 0 -1500 -4 -1500 -8z"/>
<path d="M1143 1203 c-18 -2 -33 -8 -33 -14 0 -5 53 -9 122 -9 97 0 119 3 110
12 -13 13 -137 20 -199 11z"/>
<path d="M1524 1200 c-41 -13 -104 -82 -104 -115 0 -14 -4 -25 -9 -25 -15 0
-53 72 -48 92 4 15 -1 18 -29 18 l-34 0 23 -37 c13 -21 84 -135 157 -253 138
-224 160 -255 180 -248 7 2 -1 22 -22 54 -18 27 -38 59 -45 69 -7 11 -31 52
-55 90 -23 39 -45 72 -48 75 -12 11 -31 52 -27 57 3 2 14 0 26 -6 16 -9 25 -7
45 13 14 13 26 28 26 34 0 20 52 107 78 130 23 20 24 24 10 38 -19 19 -83 26
-124 14z m101 -34 c-40 -17 -50 -31 -83 -111 -15 -37 -31 -67 -36 -67 -5 0
-21 21 -35 46 -24 43 -25 48 -11 73 27 47 76 73 139 73 55 -1 55 -1 26 -14z"/>
<path d="M1710 1203 c-40 -15 -41 -24 -10 -78 36 -62 39 -115 10 -163 -27 -43
-25 -50 15 -97 31 -36 35 -46 35 -98 0 -61 -9 -87 -43 -124 -11 -13 -17 -26
-14 -30 4 -3 7 -1 7 5 0 7 8 12 18 12 38 0 57 37 60 119 3 87 -7 115 -55 147
l-32 21 25 24 c55 52 52 144 -8 206 l-32 33 32 0 c78 0 152 -69 152 -141 0
-46 -26 -80 -80 -104 l-42 -19 36 -13 c145 -50 170 -206 43 -263 -23 -11 -54
-20 -69 -20 -15 0 -30 -5 -34 -11 -5 -8 11 -10 54 -7 50 3 69 10 99 35 78 62
78 173 1 246 l-40 38 20 22 c45 48 52 100 22 163 -31 63 -122 115 -170 97z"/>
<path d="M1128 1145 c18 -15 32 -33 32 -41 0 -9 5 -12 10 -9 6 3 10 1 10 -5 0
-5 26 -52 57 -103 32 -50 58 -98 59 -105 2 -8 10 -22 20 -33 9 -10 14 -19 10
-19 -4 0 -19 14 -33 30 -13 17 -32 30 -41 30 -16 0 -44 -32 -48 -55 -5 -30
-51 -123 -72 -145 -36 -39 -43 -55 -29 -74 12 -16 69 -23 107 -14 46 12 103
61 121 106 13 33 11 86 -3 100 -9 9 -9 12 0 12 7 0 16 -8 19 -17 4 -10 19 -34
34 -53 14 -19 35 -50 45 -68 16 -29 17 -34 4 -42 -11 -7 -5 -10 23 -10 l38 0
-15 28 c-8 15 -82 135 -163 267 -143 231 -150 240 -183 243 l-33 4 31 -27z
m157 -325 l37 -60 -22 -45 c-12 -26 -36 -53 -56 -66 -38 -23 -103 -35 -131
-25 -15 6 -13 10 14 21 41 18 64 56 94 155 13 44 25 80 26 80 1 0 18 -27 38
-60z"/>
<path d="M1456 611 c-7 -11 43 -21 108 -21 61 0 98 9 90 21 -7 12 -191 12
-198 0z"/>
</g>
</svg>
